<svg width="100" height="100" viewBox="0 0 100 100" fill="none" xmlns="http://www.w3.org/2000/svg">
<g id="Dryers">
<g id="32-front-load">
<path id="Shape" fill-rule="evenodd" clip-rule="evenodd" d="M24.1 10.3H75.9C77 10.3 78 11.2 77.9 12.4V84.4C77.9 85.6 77 86.5 75.8 86.5H24.1C22.9 86.5 22 85.6 22 84.4V12.4C22 11.2 22.9 10.3 24.1 10.3ZM75.9 85.1C76.3 85.1 76.7 84.7001 76.7 84.3L76.6 12.3C76.6 11.9 76.3 11.5 75.8 11.5H24.1C23.7 11.5 23.3 11.9 23.3 12.3V84.3C23.3 84.7001 23.6 85.1 24.1 85.1H75.9Z" fill="#011E41"/>
<path id="Shape_2" fill-rule="evenodd" clip-rule="evenodd" d="M32.0001 49.6C32.0001 39.7112 40.1112 31.6001 50.0001 31.6001C59.8889 31.6001 68 39.6001 68 49.6C68 59.4889 59.8889 67.6 50.0001 67.6C40.1112 67.6 32.0001 59.4889 32.0001 49.6ZM33.2223 49.4889C33.2223 58.7111 40.7778 66.2667 50 66.2667C59.2222 66.2667 66.7778 58.8222 66.7778 49.4889C66.7778 40.2667 59.2222 32.7112 50 32.7112C40.7778 32.7112 33.2223 40.2667 33.2223 49.4889Z" fill="#011E41"/>
<path id="Path" d="M72.9 88.5H27.1C26.7 88.5 26.5 88.8 26.5 89.1C26.5 89.4 26.8 89.7 27.1 89.7H72.9C73.3 89.7 73.5 89.4 73.5 89.1C73.5 88.8 73.3 88.5 72.9 88.5Z" fill="#011E41"/>
<path id="Shape_3" fill-rule="evenodd" clip-rule="evenodd" d="M53.9 19.8C53.9 22 52.1 23.7 50 23.7C47.9 23.7 46.1 21.9 46.1 19.8C46.1 17.6 47.9 15.9 50 15.9C52.2 15.9 53.9 17.7 53.9 19.8ZM52.8 19.7C52.8 18.2 51.6 16.9 50 16.9C48.4 16.9 47.2 18.2 47.2 19.7C47.2 21.2 48.5 22.5 50 22.5C51.5 22.5 52.8 21.3 52.8 19.7Z" fill="#011E41"/>
</g>
</g>
</svg>
